<svg width="28" height="28" viewBox="0 0 28 28" fill="none" xmlns="http://www.w3.org/2000/svg">
<path d="M13.9993 0.666016C6.63935 0.666016 0.666016 6.63935 0.666016 13.9993C0.666016 21.3594 6.63935 27.3327 13.9993 27.3327C21.3594 27.3327 27.3327 21.3594 27.3327 13.9993C27.3327 6.63935 21.3594 0.666016 13.9993 0.666016ZM22.4794 20.4394C20.5727 18.1193 15.946 17.3327 13.9993 17.3327C12.0527 17.3327 7.42602 18.1193 5.51935 20.4394C4.15935 18.6527 3.33268 16.426 3.33268 13.9993C3.33268 8.11935 8.11935 3.33268 13.9993 3.33268C19.8793 3.33268 24.666 8.11935 24.666 13.9993C24.666 16.426 23.8393 18.6527 22.4794 20.4394ZM13.9993 5.99935C11.4127 5.99935 9.33268 8.07935 9.33268 10.666C9.33268 13.2527 11.4127 15.3327 13.9993 15.3327C16.586 15.3327 18.666 13.2527 18.666 10.666C18.666 8.07935 16.586 5.99935 13.9993 5.99935Z" fill="#23A8F2"/>
</svg>
