<svg width="20" height="20" viewBox="0 0 20 20" fill="none" xmlns="http://www.w3.org/2000/svg">
<g clip-path="url(#clip0_1613_13303)">
<path d="M19.166 3.3335V8.3335H14.166" stroke="#333333" stroke-width="2" stroke-linecap="round" stroke-linejoin="round"/>
<path d="M17.0756 12.4998C16.5339 14.0331 15.5085 15.3488 14.154 16.2486C12.7995 17.1484 11.1893 17.5836 9.5659 17.4887C7.94254 17.3937 6.39401 16.7737 5.15368 15.7221C3.91335 14.6705 3.0484 13.2442 2.68919 11.6582C2.32997 10.0723 2.49595 8.4125 3.1621 6.92907C3.82826 5.44564 4.9585 4.2189 6.38251 3.43371C7.80653 2.64853 9.44716 2.34743 11.0572 2.5758C12.6672 2.80417 14.1594 3.54963 15.3089 4.69985L19.1672 8.33318" stroke="#333333" stroke-width="2" stroke-linecap="round" stroke-linejoin="round"/>
</g>
<defs>
<clipPath id="clip0_1613_13303">
<rect width="20" height="20" fill="white"/>
</clipPath>
</defs>
</svg>
