<svg width="18" height="17" viewBox="0 0 18 17" fill="none" xmlns="http://www.w3.org/2000/svg">
<path fill-rule="evenodd" clip-rule="evenodd" d="M15.6641 1.16504C16.2163 1.16504 16.6641 1.60666 16.6641 2.15142V7.08332C16.6641 9.80714 14.4255 12.0152 11.6641 12.0152H4.07828L6.66406 14.4812C7.05459 14.8664 7.05459 15.4909 6.66406 15.8761C6.27354 16.2613 5.64037 16.2613 5.24985 15.8761L0.956956 11.7263C0.566431 11.3411 0.566431 10.7166 0.956956 10.3314L5.24985 6.09694C5.64037 5.71174 6.27354 5.71174 6.66406 6.09694C7.05459 6.48215 7.05459 7.10669 6.66406 7.4919L4.07828 10.0425H11.6641C13.3209 10.0425 14.6641 8.71761 14.6641 7.08332V2.15142C14.6641 1.60666 15.1118 1.16504 15.6641 1.16504Z" fill="white" stroke="#23A8F2" stroke-width="1.3"/>
</svg>
