<svg width="108" height="24" viewBox="0 0 108 24" fill="none" xmlns="http://www.w3.org/2000/svg">
<path d="M41.6679 5.03906C41.4788 5.03906 41.3369 5.17905 41.3369 5.3657V8.81874C40.2494 6.57893 37.9798 5.03906 35.2846 5.03906C31.5965 5.03906 28.5703 8.02547 28.5703 11.6652C28.5703 15.3048 31.5965 18.2912 35.2846 18.2912C38.9728 18.2912 41.9989 15.3048 41.9989 11.6652V5.3657C41.9989 5.17905 41.8571 5.03906 41.6679 5.03906ZM35.2846 17.638C31.9747 17.638 29.2323 14.9782 29.2323 11.6652C29.2323 8.39877 31.9275 5.69234 35.2846 5.69234C38.5945 5.69234 41.3369 8.35211 41.3369 11.6652C41.3369 14.9315 38.5945 17.638 35.2846 17.638Z" fill="#23A8F2"/>
<path d="M92.5937 5.03906C92.4046 5.03906 92.2627 5.17905 92.2627 5.3657V8.81874C91.1752 6.57893 88.9056 5.03906 86.2104 5.03906C82.5223 5.03906 79.4961 8.02547 79.4961 11.6652C79.4961 15.3048 82.5223 18.2912 86.2104 18.2912C89.8985 18.2912 92.9247 15.3048 92.9247 11.6652V5.3657C92.9247 5.17905 92.7356 5.03906 92.5937 5.03906ZM86.2104 17.638C82.9005 17.638 80.1581 14.9782 80.1581 11.6652C80.1581 8.39877 82.8532 5.69234 86.2104 5.69234C89.5675 5.69234 92.2154 8.39877 92.2154 11.6652C92.2154 14.9315 89.5203 17.638 86.2104 17.638Z" fill="#23A8F2"/>
<path d="M50.0854 5.03906C46.3973 5.03906 43.3711 8.02547 43.3711 11.6652V17.9646C43.3711 18.1513 43.5129 18.2912 43.7021 18.2912C43.8912 18.2912 44.0331 18.1513 44.0331 17.9646V14.5116C45.1206 16.7514 47.3902 18.2912 50.0854 18.2912C53.7735 18.2912 56.7997 15.3048 56.7997 11.6652C56.7997 8.02547 53.8208 5.03906 50.0854 5.03906ZM50.0854 17.638C46.7755 17.638 44.0331 14.9782 44.0331 11.6652C44.0331 8.39877 46.7282 5.69234 50.0854 5.69234C53.3953 5.69234 56.1377 8.35211 56.1377 11.6652C56.1377 14.9315 53.4425 17.638 50.0854 17.638Z" fill="#23A8F2"/>
<path d="M77.9352 14.5116C77.7934 14.4182 77.557 14.4649 77.4624 14.6516C76.4221 16.3781 74.5781 17.498 72.5449 17.638V5.69234C74.5781 5.78566 76.4221 6.90557 77.4624 8.67875C77.557 8.81873 77.7461 8.91206 77.9352 8.81874C78.0771 8.72541 78.1244 8.53876 78.0771 8.35211C76.895 6.29895 74.6726 5.03906 72.2612 5.03906C68.573 5.03906 65.5469 8.02547 65.5469 11.6652C65.5469 15.3048 68.573 18.2912 72.2612 18.2912C74.6254 18.2912 76.8477 17.0314 78.0771 14.9782C78.1244 14.8382 78.0771 14.6049 77.9352 14.5116ZM66.2088 11.6652C66.2088 8.4921 68.7622 5.87899 71.9302 5.739V17.638C68.7149 17.4513 66.2088 14.8382 66.2088 11.6652Z" fill="#23A8F2"/>
<path d="M100.867 5.22656C97.2734 5.22656 94.3418 8.11964 94.3418 11.666C94.3418 11.8527 94.4836 11.9926 94.6728 11.9926C94.8619 11.9926 95.0038 11.8527 95.0038 11.666C95.0038 8.58627 97.4625 6.06649 100.536 5.87984V17.7788C100.536 17.9655 100.678 18.1054 100.867 18.1054C101.056 18.1054 101.198 17.9655 101.198 17.7788V5.87984C104.271 6.06649 106.73 8.58627 106.73 11.666C106.73 11.8527 106.872 11.9926 107.061 11.9926C107.25 11.9926 107.392 11.8527 107.392 11.666C107.392 8.11964 104.461 5.22656 100.867 5.22656Z" fill="#23A8F2"/>
<path d="M64.3175 17.0322C63.4664 17.5455 62.4734 17.7788 61.4805 17.8255V5.50658C62.4734 5.55324 63.4191 5.83322 64.2702 6.29984C64.4121 6.39317 64.6485 6.34651 64.7431 6.15986C64.8376 6.01987 64.7903 5.78656 64.6012 5.69323C63.561 5.08662 62.4261 4.80664 61.2441 4.80664C61.1968 4.80664 61.1968 4.80664 61.1495 4.80664C61.1022 4.80664 61.1022 4.80664 61.0549 4.80664C59.8728 4.80664 58.6907 5.13328 57.6978 5.69323C57.5559 5.78656 57.5086 5.97321 57.5559 6.15986C57.6032 6.25318 57.7451 6.29984 57.8396 6.29984C57.8869 6.29984 57.9342 6.29985 57.9815 6.25318C58.8326 5.78656 59.8255 5.50658 60.7712 5.45992V17.7788C59.7783 17.7322 58.8326 17.4522 57.9342 16.9856C57.7923 16.8923 57.5559 16.9389 57.4613 17.1256C57.3668 17.2656 57.4141 17.4989 57.6032 17.5922C58.6434 18.1988 59.8728 18.5254 61.1022 18.5254C62.3316 18.5254 63.5137 18.1988 64.6012 17.5922C64.7431 17.4989 64.7903 17.3122 64.7431 17.1256C64.6958 16.9856 64.4594 16.9389 64.3175 17.0322Z" fill="#23A8F2"/>
<path d="M22.19 15.7722C21.6226 15.6789 21.2443 15.9122 20.9606 16.3788C19.8731 17.872 18.8801 17.6387 16.9415 18.9919C15.0974 20.2518 14.9083 22.9583 14.6719 23.3316C16.0431 22.4916 18.8329 21.5584 21.2916 19.4119C22.5683 18.292 23.3248 17.1721 23.7977 16.0989C23.5612 16.0522 23.4667 16.0055 22.19 15.7722Z" fill="white"/>
<path d="M24.0808 15.3046C24.6482 13.858 24.6955 12.4115 24.6482 11.0116C24.5064 5.4121 21.1965 3.26562 21.1965 3.26562C21.3856 4.33887 20.1562 5.97206 20.1562 6.90531C20.1562 7.97855 21.3383 8.35185 21.8585 9.56508C22.284 10.545 22.5677 12.0382 22.1895 13.6247C22.0003 14.3713 22.4259 14.6046 23.2297 14.9313C23.7025 15.1179 24.0808 15.3046 24.0808 15.3046Z" fill="white"/>
<path d="M12.3543 0C7.53139 0 4.74164 2.75309 4.12695 2.89308C4.12695 2.89308 5.4509 3.63968 7.2004 3.63968C9.56459 3.63968 8.90262 2.89308 12.3543 2.89308C15.8061 2.89308 15.1441 3.63968 17.5083 3.63968C19.2578 3.63968 20.5817 2.89308 20.5817 2.89308C19.9197 2.75309 17.13 0 12.3543 0Z" fill="white"/>
<path d="M2.47288 15.7722C3.04029 15.6789 3.41856 15.9122 3.70226 16.3788C4.78979 17.872 5.78275 17.6387 7.72139 18.9919C9.56546 20.2518 9.75459 22.9583 9.99101 23.3316C8.61978 22.4916 5.83004 21.5584 3.37128 19.4119C2.09461 18.292 1.33807 17.1721 0.865234 16.0989C1.10165 16.0522 1.19622 16.0055 2.47288 15.7722Z" fill="white"/>
<path d="M0.581267 15.3046C0.0138611 13.858 -0.0334231 12.4115 0.0138607 11.0116C0.155712 5.4121 3.46558 3.26562 3.46558 3.26562C3.27644 4.33887 4.50582 5.97206 4.50582 6.90531C4.50582 7.97855 3.32373 8.35185 2.80361 9.56508C2.37805 10.545 2.09435 12.0382 2.47262 13.6247C2.66175 14.3713 2.2362 14.6046 1.43238 14.9313C0.959537 15.1179 0.581267 15.3046 0.581267 15.3046Z" fill="white"/>
<path d="M13.5373 11.9453C13.4427 11.9453 13.3954 11.992 13.3954 12.0853V12.4586C13.159 12.1786 12.7808 11.9453 12.3552 11.9453C11.5987 11.9453 11.0312 12.5519 11.0312 13.2519C11.0312 13.9985 11.6459 14.5584 12.3552 14.5584C13.1117 14.5584 13.6791 13.9518 13.6791 13.2519V12.132C13.6791 12.0386 13.5846 11.9453 13.5373 11.9453ZM12.3552 14.2784C11.7878 14.2784 11.315 13.8118 11.315 13.2519C11.315 12.6919 11.7878 12.2253 12.3552 12.2253C12.9226 12.2253 13.3954 12.6919 13.3954 13.2519C13.3954 13.8118 12.9226 14.2784 12.3552 14.2784Z" fill="#23A8F2"/>
</svg>
