<svg width="390" height="390" viewBox="0 0 390 390" fill="none" xmlns="http://www.w3.org/2000/svg">
<g filter="url(#filter0_i_546_5126)">
<path d="M65.5 65H163L195.5 97.5H325.5C343.375 97.5 358 112.125 358 130V292.5C358 310.375 343.375 325 325.5 325H65.5C47.625 325 33 310.375 33 292.5L33.1625 97.5C33.1625 79.625 47.625 65 65.5 65Z" fill="#F2F2F2"/>
</g>
<path d="M140.989 262.722C140.588 262.722 140.388 262.919 140.388 263.314V270.228C138.186 265.685 133.582 262.722 128.178 262.722C120.772 262.722 114.566 268.648 114.566 276.154C114.566 283.463 120.571 289.389 128.178 289.389C135.584 289.389 141.589 283.463 141.589 276.154V263.512C141.589 263.117 141.389 262.722 140.989 262.722ZM128.178 288.204C121.372 288.204 115.968 282.871 115.968 276.154C115.968 269.438 121.372 264.104 128.178 264.104C134.984 264.104 140.388 269.438 140.388 276.154C140.188 282.871 134.783 288.204 128.178 288.204Z" fill="#23A8F2"/>
<path d="M243.675 262.722C243.275 262.722 243.075 262.919 243.075 263.314V270.228C240.873 265.685 236.269 262.722 230.864 262.722C223.458 262.722 217.453 268.648 217.453 276.154C217.453 283.463 223.458 289.389 230.864 289.389C238.271 289.389 244.276 283.463 244.276 276.154V263.512C244.276 263.117 243.875 262.722 243.675 262.722ZM230.664 288.204C223.859 288.204 218.454 282.871 218.454 276.154C218.454 269.438 223.859 264.104 230.664 264.104C237.47 264.104 242.874 269.438 242.874 276.154C242.874 282.871 237.47 288.204 230.664 288.204Z" fill="#23A8F2"/>
<path d="M158.003 262.722C150.597 262.722 144.592 268.648 144.592 276.154V288.797C144.592 289.192 144.792 289.389 145.192 289.389C145.593 289.389 145.793 289.192 145.793 288.797V281.883C147.995 286.426 152.599 289.389 158.003 289.389C165.409 289.389 171.614 283.463 171.614 276.154C171.414 268.845 165.409 262.722 158.003 262.722ZM158.003 288.204C151.197 288.204 145.793 282.871 145.793 276.154C145.793 269.438 151.197 264.104 158.003 264.104C164.809 264.104 170.213 269.438 170.213 276.154C170.213 282.871 164.609 288.204 158.003 288.204Z" fill="#23A8F2"/>
<path d="M214.049 281.881C213.649 281.684 213.249 281.881 213.049 282.079C211.047 285.634 207.244 287.807 203.24 288.005V264.103C207.244 264.3 211.047 266.671 213.049 270.029C213.249 270.424 213.649 270.424 214.049 270.226C214.45 270.029 214.45 269.634 214.25 269.239C211.848 265.09 207.444 262.522 202.64 262.522C195.234 262.522 189.229 268.449 189.229 275.758C189.229 283.066 195.234 288.993 202.64 288.993C207.444 288.993 211.848 286.425 214.25 282.276C214.45 282.474 214.45 282.079 214.049 281.881ZM190.43 276.153C190.43 269.831 195.634 264.498 201.839 264.103V288.005C195.434 287.807 190.43 282.474 190.43 276.153Z" fill="#23A8F2"/>
<path d="M260.289 263.115C253.083 263.115 247.078 269.041 247.078 276.153C247.078 276.548 247.278 276.745 247.679 276.745C248.079 276.745 248.279 276.548 248.279 276.153C248.279 269.832 253.283 264.893 259.489 264.498V288.4C259.489 288.795 259.689 288.993 260.089 288.993C260.489 288.993 260.69 288.795 260.69 288.4V264.498C266.895 264.893 271.899 269.832 271.899 276.153C271.899 276.548 272.099 276.745 272.499 276.745C272.9 276.745 273.1 276.548 273.1 276.153C273.5 269.041 267.495 263.115 260.289 263.115Z" fill="#23A8F2"/>
<path d="M186.627 287.018C184.825 288.005 183.024 288.598 181.022 288.598V263.708C183.024 263.905 185.025 264.301 186.627 265.288C187.027 265.486 187.427 265.288 187.628 265.091C187.828 264.696 187.628 264.301 187.427 264.103C185.426 262.918 183.024 262.325 180.622 262.325H180.422H180.221C177.819 262.325 175.417 262.918 173.416 264.103C173.015 264.301 173.015 264.696 173.215 265.091C173.416 265.288 173.616 265.486 173.816 265.486C174.016 265.486 174.016 265.486 174.216 265.486C176.018 264.498 177.819 263.906 179.821 263.906V288.795C177.819 288.598 175.818 288.203 174.216 287.215C173.816 287.017 173.416 287.215 173.215 287.413C173.015 287.808 173.215 288.203 173.416 288.4C175.617 289.585 178.02 290.178 180.422 290.178C182.824 290.178 185.226 289.585 187.427 288.4C187.828 288.203 187.828 287.808 187.628 287.413C187.427 286.82 187.027 286.82 186.627 287.018Z" fill="#23A8F2"/>
<path d="M235.667 210.569C233.265 210.174 231.663 211.162 230.462 213.137C225.858 219.458 221.655 218.471 213.448 224.199C205.641 229.533 204.841 240.99 203.84 242.57C209.645 239.015 221.455 235.064 231.863 225.977C237.268 221.236 240.471 216.495 242.472 211.952C241.471 211.754 241.271 211.557 235.667 210.569Z" fill="white"/>
<path d="M243.673 208.594C246.075 202.47 246.275 196.346 246.075 190.42C245.474 166.716 231.462 157.629 231.462 157.629C232.263 162.172 227.059 169.086 227.059 173.037C227.059 177.58 232.063 179.161 234.265 184.297C236.066 188.445 237.267 194.766 235.666 201.482C234.865 204.643 236.667 205.631 240.07 207.013C242.271 207.804 243.673 208.594 243.673 208.594Z" fill="white"/>
<path d="M194.032 143.8C173.615 143.8 161.805 155.455 159.203 156.047C159.203 156.047 164.808 159.208 172.214 159.208C182.222 159.208 179.42 156.047 194.032 156.047C208.645 156.047 205.842 159.208 215.851 159.208C223.257 159.208 228.862 156.047 228.862 156.047C226.259 155.455 214.45 143.8 194.032 143.8Z" fill="white"/>
<path d="M152.398 210.569C154.8 210.174 156.401 211.162 157.602 213.137C162.206 219.458 166.409 218.471 174.616 224.199C182.423 229.533 183.223 240.99 184.224 242.57C178.419 239.015 166.609 235.064 156.201 225.977C150.796 221.236 147.593 216.495 145.592 211.952C146.593 211.754 146.793 211.557 152.398 210.569Z" fill="white"/>
<path d="M144.39 208.594C141.988 202.47 141.788 196.346 141.988 190.42C142.589 166.716 156.601 157.629 156.601 157.629C155.8 162.172 161.004 169.086 161.004 173.037C161.004 177.58 156 179.161 153.798 184.297C151.997 188.445 150.796 194.766 152.397 201.482C153.198 204.643 151.396 205.631 147.993 207.013C145.792 207.804 144.39 208.594 144.39 208.594Z" fill="white"/>
<path d="M199.037 194.368C198.636 194.368 198.436 194.566 198.436 194.961V196.541C197.435 195.356 195.834 194.368 194.032 194.368C190.83 194.368 188.428 196.936 188.428 199.899C188.428 203.06 191.03 205.43 194.032 205.43C197.235 205.43 199.637 202.862 199.637 199.899V195.158C199.637 194.763 199.437 194.368 199.037 194.368ZM194.032 204.245C191.63 204.245 189.629 202.27 189.629 199.899C189.629 197.529 191.63 195.553 194.032 195.553C196.434 195.553 198.436 197.529 198.436 199.899C198.436 202.27 196.434 204.245 194.032 204.245Z" fill="#23A8F2"/>
<defs>
<filter id="filter0_i_546_5126" x="33" y="65" width="325" height="260" filterUnits="userSpaceOnUse" color-interpolation-filters="sRGB">
<feFlood flood-opacity="0" result="BackgroundImageFix"/>
<feBlend mode="normal" in="SourceGraphic" in2="BackgroundImageFix" result="shape"/>
<feColorMatrix in="SourceAlpha" type="matrix" values="0 0 0 0 0 0 0 0 0 0 0 0 0 0 0 0 0 0 127 0" result="hardAlpha"/>
<feOffset/>
<feGaussianBlur stdDeviation="15"/>
<feComposite in2="hardAlpha" operator="arithmetic" k2="-1" k3="1"/>
<feColorMatrix type="matrix" values="0 0 0 0 0 0 0 0 0 0 0 0 0 0 0 0 0 0 0.1 0"/>
<feBlend mode="normal" in2="shape" result="effect1_innerShadow_546_5126"/>
</filter>
</defs>
</svg>
