<svg width="24" height="24" viewBox="0 0 24 24" fill="none" xmlns="http://www.w3.org/2000/svg">
<path d="M19.8805 13.89C20.9205 13.89 21.7705 13.04 21.7705 12C21.7705 10.96 20.9205 10.11 19.8805 10.11C18.8405 10.11 17.9905 10.96 17.9905 12C17.9905 13.04 18.8405 13.89 19.8805 13.89ZM15.6405 13.68C16.5705 13.68 17.3205 12.93 17.3205 12C17.3205 11.07 16.5705 10.32 15.6405 10.32C14.7105 10.32 13.9605 11.07 13.9605 12C13.9605 12.93 14.7105 13.68 15.6405 13.68ZM15.6405 9.42C16.5705 9.42 17.3205 8.67 17.3205 7.74C17.3205 6.81 16.5705 6.06 15.6405 6.06C14.7105 6.06 13.9605 6.81 13.9605 7.74C13.9605 8.67 14.7105 9.42 15.6405 9.42ZM15.6405 17.93C16.5705 17.93 17.3205 17.18 17.3205 16.25C17.3205 15.32 16.5705 14.57 15.6405 14.57C14.7105 14.57 13.9605 15.32 13.9605 16.25C13.9605 17.17 14.7105 17.93 15.6405 17.93ZM11.4005 13.47C12.2105 13.47 12.8705 12.81 12.8705 12C12.8705 11.19 12.2105 10.53 11.4005 10.53C10.5905 10.53 9.93047 11.19 9.93047 12C9.93047 12.81 10.5805 13.47 11.4005 13.47ZM11.4005 9.21C12.2105 9.21 12.8705 8.55 12.8705 7.74C12.8705 6.93 12.2105 6.27 11.4005 6.27C10.5905 6.27 9.93047 6.93 9.93047 7.74C9.93047 8.55 10.5805 9.21 11.4005 9.21ZM11.4005 17.73C12.2105 17.73 12.8705 17.07 12.8705 16.26C12.8705 15.45 12.2105 14.79 11.4005 14.79C10.5905 14.79 9.93047 15.45 9.93047 16.26C9.92047 17.07 10.5805 17.73 11.4005 17.73ZM11.4005 22C12.2105 22 12.8705 21.34 12.8705 20.53C12.8705 19.72 12.2105 19.06 11.4005 19.06C10.5905 19.06 9.93047 19.72 9.93047 20.53C9.92047 21.34 10.5805 22 11.4005 22ZM11.4005 4.94C12.2105 4.94 12.8705 4.28 12.8705 3.47C12.8705 2.66 12.2105 2 11.4005 2C10.5905 2 9.93047 2.66 9.93047 3.47C9.93047 4.28 10.5805 4.94 11.4005 4.94ZM7.15047 13.26C7.85047 13.26 8.41047 12.69 8.41047 12C8.41047 11.31 7.84047 10.74 7.15047 10.74C6.45047 10.74 5.89047 11.31 5.89047 12C5.89047 12.69 6.45047 13.26 7.15047 13.26ZM7.15047 17.51C7.85047 17.51 8.41047 16.94 8.41047 16.25C8.41047 15.55 7.84047 14.99 7.15047 14.99C6.45047 14.99 5.89047 15.56 5.89047 16.25C5.89047 16.94 6.45047 17.51 7.15047 17.51ZM7.15047 9.02C7.85047 9.02 8.41047 8.45 8.41047 7.76C8.41047 7.06 7.84047 6.5 7.15047 6.5C6.45047 6.5 5.89047 7.07 5.89047 7.76C5.89047 8.45 6.45047 9.02 7.15047 9.02ZM3.28047 13.05C3.86047 13.05 4.33047 12.58 4.33047 12C4.33047 11.42 3.86047 10.95 3.28047 10.95C2.70047 10.95 2.23047 11.42 2.23047 12C2.23047 12.58 2.70047 13.05 3.28047 13.05Z" fill="#808080"/>
</svg>
